<?xml version="1.0" encoding="UTF-8" standalone="no"?>
<!-- Created with Inkscape (http://www.inkscape.org/) -->
<svg
   xmlns:svg="http://www.w3.org/2000/svg"
   xmlns="http://www.w3.org/2000/svg"
   version="1.0"
   width="848.19714"
   height="738.54144"
   id="svg2">
  <defs
     id="defs4" />
  <g
     transform="translate(-1004.0146,-174.21752)"
     id="layer1">
    <path
       d="M 1401.7334,912.51127 C 1398.9834,912.31047 1387.9584,911.66961 1377.2334,911.08713 C 1354.8157,909.86962 1322.3679,906.68007 1311.8995,904.66495 C 1300.3339,902.43863 1242.1921,885.80039 1208.7334,875.14229 C 1203.7834,873.56549 1195.2334,870.9024 1189.7334,869.22432 C 1179.8036,866.19466 1128.3496,850.02091 1108.2334,843.60605 C 1028.1958,818.08282 1017.2024,814.47911 1016.1408,813.4175 C 1015.4521,812.72881 1015.5081,810.19704 1016.3143,805.56705 C 1018.5446,792.75995 1015.7022,765.82933 1008.5084,731.61017 C 1006.5428,722.26017 1004.7276,713.14767 1004.4746,711.36017 L 1004.0146,708.11017 L 1008.5247,708.11017 C 1030.7835,708.11017 1113.5889,730.29629 1223.7334,765.77121 C 1248.6652,773.80115 1263.8556,777.57547 1297.2334,784.03366 C 1358.1603,795.82222 1395.355,799.58507 1450.7334,799.56269 C 1500.4403,799.5426 1517.2702,797.63462 1556.9065,787.52603 C 1581.9111,781.14899 1589.9951,778.6633 1605.0891,772.71068 C 1618.2556,767.51819 1618.0883,769.04475 1604.7764,775.56345 C 1585.578,784.96475 1554.8537,793.55558 1525.7334,797.66469 C 1519.1334,798.59601 1513.0828,799.70697 1512.2875,800.1335 C 1507.8476,802.51472 1539.4673,802.45299 1558.7334,800.04283 C 1599.5198,794.94054 1629.757,780.10224 1647.2396,756.61017 C 1654.1232,747.36052 1661.2519,731.65142 1661.2107,725.82315 C 1661.1891,722.76698 1661.0296,722.903 1657.9427,728.61017 C 1656.1578,731.91017 1653.2964,736.63517 1651.5842,739.11017 C 1648.3479,743.78808 1630.9324,761.11017 1629.4655,761.11017 C 1629.005,761.11017 1624.1298,756.72267 1618.6318,751.36017 C 1587.5307,721.0256 1532.198,693.481 1461.7334,673.25631 C 1424.0263,662.43362 1390.3559,655.39812 1336.7334,647.13726 C 1192.031,624.845 1088.9679,579.76268 1049.6267,521.54966 C 1046.3039,516.63294 1041.4483,509.49635 1038.8365,505.69058 C 1033.1655,497.42711 1028.3403,487.98543 1025.2526,479.11017 C 1022.114,470.08893 1021.3155,452.23242 1023.6427,443.11017 C 1028.8749,422.60072 1043.6202,403.97567 1068.4148,386.55747 L 1076.0962,381.16131 L 1071.3059,371.75242 C 1063.2576,355.94458 1059.2639,335.99693 1061.2889,321.71926 C 1066.3428,286.0845 1095.301,249.54316 1138.4939,224.2968 C 1180.0778,199.9909 1236.685,184.27538 1306.7334,177.58946 C 1357.715,172.72342 1441.9427,173.15972 1514.7334,178.66688 C 1608.4447,185.75684 1681.1541,201.17281 1721.7334,222.55534 C 1727.2334,225.45347 1735.3961,229.4666 1739.8726,231.47342 C 1767.9396,244.05579 1799.3631,266.58891 1816.3234,286.29471 C 1825.1888,296.59531 1834.3216,310.97834 1839.3825,322.61017 L 1843.7334,332.61017 L 1843.6525,348.61017 C 1843.5866,361.61398 1843.1765,366.04749 1841.4624,372.2856 C 1838.4748,383.15864 1833.8681,393.76707 1827.7423,403.88072 L 1822.455,412.61017 L 1830.6212,420.61017 C 1839.7143,429.5182 1845.162,437.17824 1848.9802,446.42466 C 1852.3759,454.64811 1853.2555,470.49197 1850.8511,480.12267 C 1840.5689,521.30612 1781.2683,570.53831 1710.1461,596.93799 C 1685.1227,606.22636 1660.4005,613.21007 1629.866,619.61614 C 1621.1389,621.44707 1613.5653,623.37833 1613.0358,623.90783 C 1612.4188,624.52481 1616.6809,627.91792 1624.9032,633.35573 C 1639.8715,643.25485 1644.3831,647.49785 1651.6627,658.522 C 1666.8486,681.5191 1671.4104,705.73942 1664.9577,729.11017 C 1661.1993,742.72263 1660.3298,750.88519 1659.2137,783.03132 C 1658.1877,812.58505 1657.2052,821.9725 1654.2348,830.60616 C 1650.0652,842.72525 1644.5136,850.46533 1627.7334,867.55416 C 1604.6744,891.03737 1563.7053,904.5739 1495.7334,911.168 C 1485.0724,912.20226 1411.8346,913.24883 1401.7334,912.51127 z M 1594.2334,613.92072 C 1586.6387,607.47156 1543.4922,589.53745 1495.7334,572.97866 C 1484.7334,569.16476 1474.8066,565.6578 1473.6738,565.18541 C 1467.3657,562.55488 1432.1019,552.27536 1413.396,547.61423 C 1373.3688,537.64029 1323.8023,527.05526 1298.7334,523.1278 C 1224.5143,511.50013 1141.6628,481.87776 1071.9362,442.03972 C 1062.1477,436.44711 1053.8993,432.11103 1053.6063,432.40399 C 1051.4662,434.54408 1068.792,450.05774 1086.2334,461.61865 C 1144.2,500.04122 1232.3917,528.08728 1356.7334,547.64101 C 1384.3012,551.97626 1428.7307,561.48028 1469.6326,571.79151 C 1495.6624,578.35355 1520.5267,587.02314 1581.2334,610.70409 C 1588.6584,613.60049 1595.1834,615.98678 1595.7334,616.00695 C 1596.2834,616.02713 1595.6084,615.08832 1594.2334,613.92072 z M 1601.354,576.16589 C 1611.3879,574.83924 1619.3535,573.10231 1626.7454,570.62919 C 1691.7115,548.8933 1741.5454,515.38264 1768.216,475.49766 C 1775.0807,465.23165 1776.9482,461.49159 1775.7885,460.3319 C 1775.4433,459.98674 1769.2148,465.59254 1761.9472,472.78924 C 1746.1079,488.47403 1742.7181,491.50757 1729.737,501.61366 C 1692.6932,530.45316 1651.9692,550.55449 1608.2334,561.58775 C 1586.4669,567.07881 1558.6637,571.11017 1542.5598,571.11017 C 1529.813,571.11017 1537.137,573.76359 1556.2334,576.064 C 1576.5801,578.51502 1583.469,578.53058 1601.354,576.16589 z M 1515.2334,510.0852 C 1585.418,506.95219 1637.2279,497.9233 1696.2334,478.54238 C 1728.4175,467.97123 1745.4616,461.20419 1763.1834,451.96111 C 1800.6279,432.43141 1824.093,408.7334 1830.8625,383.61017 C 1833.5326,373.70061 1832.052,372.10035 1828.2768,380.81548 C 1814.1864,413.34325 1774.0673,440.79896 1708.8114,462.57219 C 1667.2494,476.43972 1603.1545,487.11713 1530.7334,492.23771 C 1492.7593,494.9227 1423.4582,493.22488 1382.4671,488.6053 C 1254.839,474.22197 1143.5359,435.10167 1094.671,387.45202 C 1084.6718,377.70152 1079.2123,370.34328 1074.1574,359.80402 C 1066.6209,344.09099 1065.4172,327.75108 1070.515,310.36017 C 1071.8451,305.82267 1072.7552,302.11017 1072.5374,302.11017 C 1072.3196,302.11017 1071.0447,304.47267 1069.7042,307.36017 C 1061.5396,324.94757 1062.8203,346.45887 1073.1867,365.85534 C 1089.2165,395.84856 1131.6246,428.09085 1188.5178,453.53998 C 1212.2092,464.13745 1228.792,469.8918 1263.2334,479.46677 C 1321.0936,495.55233 1380.1869,505.58528 1437.8446,509.11252 C 1470.0174,511.0807 1487.8981,511.30544 1515.2334,510.0852 z M 1685.9422,440.86017 C 1689.8641,436.57096 1691.2334,432.47936 1691.2334,425.04981 C 1691.2334,418.96045 1690.7699,417.02048 1688.1329,412.07282 C 1680.2425,397.26901 1661.0217,384.06518 1634.4147,375.17075 C 1608.7335,366.58586 1581.8937,362.77427 1546.7334,362.71893 C 1521.4691,362.67917 1516.3909,363.12633 1495.2334,367.2538 C 1456.9031,374.73143 1431.6374,392.10671 1429.5397,412.43167 C 1428.9429,418.21385 1431.6901,426.40348 1435.332,429.6994 C 1438.1951,432.29042 1438.634,430.83223 1436.7229,425.07854 C 1431.4696,409.26229 1444.0474,395.6379 1473.4914,385.25048 C 1491.8621,378.76958 1510.4209,375.66623 1540.0921,374.11371 C 1598.9511,371.03396 1645.7257,382.64619 1675.5514,407.74273 C 1688.9592,419.02459 1690.4368,426.44627 1682.4435,442.36017 C 1681.6195,444.00065 1684.0062,442.97737 1685.9422,440.86017 z M 1364.6032,388.86017 C 1366.2973,382.53854 1363.4199,371.86204 1358.4208,365.92102 C 1352.2312,358.56505 1333.519,348.79897 1315.6874,343.61808 C 1286.8083,335.22736 1246.9481,333.96525 1209.7717,340.26444 C 1184.9769,344.46569 1161.4534,355.02558 1151.8208,366.2791 C 1147.8234,370.9492 1145.1614,378.28236 1145.9555,382.4365 C 1146.6606,386.12487 1147.6233,385.78966 1149.7276,381.12308 C 1154.3355,370.90465 1170.1524,360.69995 1189.2334,355.63487 C 1206.9253,350.93854 1218.6379,349.69839 1245.7334,349.6525 C 1272.2434,349.60761 1282.8274,350.52274 1304.6469,354.74637 C 1339.2225,361.43922 1356.9713,371.71178 1361.3482,387.56366 C 1362.4691,391.62334 1363.7283,392.12486 1364.6032,388.86017 z M 1604.531,325.86017 C 1597.34,318.50696 1594.8603,313.34505 1595.4702,306.99826 C 1595.8814,302.71908 1596.6061,301.30369 1600.3433,297.48186 C 1608.6257,289.01191 1623.7174,283.54881 1650.2334,279.42205 C 1666.5404,276.88415 1703.4082,276.89751 1718.601,279.44684 C 1739.0897,282.88482 1752.1272,286.96301 1766.6539,294.47807 C 1778.5598,300.6373 1789.6027,310.38469 1791.6879,316.57517 C 1793.7478,322.69074 1795.2334,322.19385 1795.2334,315.38928 C 1795.2334,310.62674 1794.6858,308.63826 1792.3677,304.9829 C 1783.2287,290.5722 1752.6023,276.59225 1719.2334,271.59946 C 1686.2369,266.66239 1652.0929,268.23104 1621.2733,276.09999 C 1598.9755,281.79312 1582.2334,294.33506 1582.2334,305.34579 C 1582.2334,313.52556 1589.6314,322.03265 1602.7334,328.91931 C 1609.3595,332.40205 1609.9484,331.3998 1604.531,325.86017 z M 1149.4533,281.48261 C 1139.9009,273.47403 1139.7029,264.70648 1148.8369,254.19375 C 1163.8413,236.9247 1229.376,226.76766 1281.6124,233.61525 C 1316.3975,238.17517 1337.0662,247.54757 1344.8713,262.30043 C 1346.7815,265.91091 1347.3288,276.27747 1345.904,281.86017 C 1344.7309,286.45671 1346.376,285.99367 1350.9165,280.44935 C 1354.35,276.25678 1354.7303,275.22306 1354.702,270.16009 C 1354.5893,250.00272 1325.3852,234.08658 1278.4345,228.59446 C 1263.6097,226.86031 1224.5863,226.60158 1209.0894,228.13469 C 1181.4906,230.86506 1159.9557,238.23119 1145.8158,249.77783 C 1134.0549,259.38179 1130.3794,268.75616 1135.2714,276.67161 C 1137.6311,280.48959 1146.1055,285.11992 1150.6798,285.0906 L 1153.7334,285.07103 L 1149.4533,281.48261 z M 1585.0228,257.40045 C 1590.1313,254.98468 1598.3422,247.07943 1600.3628,242.63149 C 1602.7224,237.43719 1602.6945,229.72237 1600.2971,224.44211 C 1590.7887,203.5003 1544.1529,190.1363 1479.2334,189.75 C 1445.7371,189.55069 1426.7899,192.72805 1408.7334,201.57255 C 1389.0963,211.19132 1381.2425,223.36688 1387.1745,234.99469 C 1390.714,241.93254 1401.1882,249.01624 1412.4074,252.05963 C 1419.136,253.88487 1420.0166,253.01166 1415.0467,249.44255 C 1407.5704,244.07344 1399.6266,235.36564 1398.3657,231.15727 C 1395.8353,222.71152 1402.4722,214.85484 1418.6193,207.18133 C 1428.9208,202.28576 1441.7103,198.25827 1450.7132,197.07474 C 1463.6058,195.37987 1499.0067,194.77876 1513.7334,196.00465 C 1547.7785,198.83865 1572.6176,206.00778 1584.8952,216.54359 C 1590.3618,221.23466 1594.2334,229.03033 1594.2334,235.34635 C 1594.2334,241.67931 1591.4651,246.95758 1585.4977,252.00221 C 1582.8774,254.21735 1579.6084,256.97919 1578.2334,258.13964 L 1575.7334,260.24955 L 1578.7334,259.60274 C 1580.3834,259.247 1583.2136,258.25597 1585.0228,257.40045 z"
       id="path2382"
       style="fill:#000000" />
  </g>
</svg>
